<?xml version="1.0" encoding="UTF-8"?><svg id="Layer_1" xmlns="http://www.w3.org/2000/svg" xmlns:xlink="http://www.w3.org/1999/xlink" viewBox="0 0 140 140"><defs><style>.cls-1{fill:none;}.cls-2{clip-path:url(#clippath);}.cls-3{fill:#2e8bff;}</style><clipPath id="clippath"><rect class="cls-1" width="140" height="140"/></clipPath></defs><g class="cls-2"><g><path class="cls-3" d="M73.28,27.83c13.13,4.31,24.71,11.99,33.78,22.01,1.49-1.34,3.27-2.12,5.17-2.12,.56,0,1.11,.08,1.64,.21,3.36-9.37,4.55-19.47,3.02-29.73,0-.06-.03-.12-.03-.19-6.13-5.52-13.24-9.98-21.03-13.07-8.33,6.18-15.98,13.88-22.54,22.9Z"/><path class="cls-3" d="M41.54,24.3c2.4-.23,4.82-.38,7.28-.38,6.24,0,12.29,.74,18.11,2.11,6.72-9.14,14.56-16.92,23.09-23.11-6.34-1.89-13.06-2.92-20.01-2.92-8.11,0-15.88,1.39-23.12,3.93-3.89,5.27-7.1,11.05-9.59,17.21,1.83,.64,3.33,1.73,4.25,3.16Z"/><path class="cls-3" d="M33.76,36.53c-.33,.08-.65,.14-.98,.19-.78,4.42-1.21,8.95-1.21,13.59,0,13.37,3.4,25.92,9.32,36.92,1.28-.17,2.6-.17,3.94-.02,.71-13.81,4.15-28.11,10.65-41.92,2.08-4.43,4.41-8.64,6.94-12.64-5.62-1.28-11.48-1.96-17.49-1.96-1.08,0-2.14,.06-3.21,.11-1.34,2.62-4.25,4.84-7.96,5.72Z"/><path class="cls-3" d="M68.83,34.43c-2.43,3.88-4.67,7.95-6.68,12.23-6.61,14.06-10.05,28.62-10.67,42.65,2.56,1.39,4.63,3.32,6.08,5.53,19.12-4.07,35.22-14.39,45.91-28.1-.55-1.69-.86-3.57-.86-5.54,0-1.6,.21-3.13,.58-4.56-9.2-10.16-20.99-17.93-34.36-22.2Z"/><path class="cls-3" d="M30.3,94.74c.83-1.96,2.16-3.57,3.81-4.82-5.89-10.98-9.25-23.51-9.25-36.84,0-5.75,.69-11.34,1.88-16.73-1.56-.5-2.9-1.33-3.86-2.41-5.81,1.7-11.36,4.02-16.53,6.94C2.29,49.74,0,59.6,0,70c0,5.97,.75,11.77,2.16,17.31,8.32,4.51,17.71,7.54,27.67,8.77,.13-.45,.28-.9,.47-1.34Z"/><path class="cls-3" d="M112.24,74.66c-1.38,0-2.7-.41-3.89-1.15-11.08,14.48-28.15,25.29-48.45,29.07-.03,1.45-.31,2.9-.9,4.3-.29,.68-.66,1.32-1.06,1.92,13.51,11.97,31.17,19.35,50.58,19.64,5.54-3.66,10.52-8.08,14.8-13.12,.15-1.97,.26-3.96,.26-5.97,0-12.72-3.08-24.69-8.45-35.32-.92,.4-1.89,.62-2.9,.62Z"/><path class="cls-3" d="M53.23,113.27c1.94,9.57,5.35,18.5,10.1,26.41,2.2,.21,4.42,.33,6.67,.33,12.33,0,23.91-3.2,33.97-8.79-.32,0-.63,.03-.95,.03-18.93,0-36.27-6.76-49.79-17.97Z"/><path class="cls-3" d="M39.46,113.1c-4.94-2.09-8.39-6.07-9.6-10.41-9.4-1.7-18.2-5.02-25.97-9.66,8.13,23.36,28.29,41.07,53.05,45.75-4.46-7.3-7.74-15.51-9.79-24.28-2.5,.12-5.14-.31-7.69-1.39Z"/><path class="cls-3" d="M30.03,20.88c.66-.16,1.31-.26,1.96-.32,2.26-4.92,5.01-9.58,8.2-13.89-12.69,5.98-23.28,15.66-30.4,27.65,3.67-2.1,7.53-3.9,11.54-5.4,.49-3.56,3.94-6.9,8.71-8.03Z"/><path class="cls-3" d="M140,70c0-18.71-7.35-35.69-19.31-48.25,.26,1.23,.49,2.48,.68,3.74,1.37,9.15,.56,18.17-2.01,26.66,1.55,2.39,2.5,5.55,2.5,9.03,0,2.98-.7,5.73-1.87,7.96,4.78,10.15,7.48,21.47,7.48,33.43,0,2.68-.15,5.33-.41,7.94,8.13-11.44,12.94-25.41,12.94-40.52Z"/><path class="cls-3" d="M41.94,107.22c4.13,1.75,8.7,.29,10.19-3.25,1.5-3.54-.64-7.82-4.77-9.57-4.13-1.75-8.7-.29-10.19,3.24-1.5,3.54,.64,7.82,4.77,9.57Z"/><path class="cls-3" d="M112.24,66.9c2.25,0,4.08-2.56,4.08-5.71s-1.83-5.71-4.08-5.71-4.08,2.56-4.08,5.71,1.83,5.71,4.08,5.71Z"/><path class="cls-3" d="M32.69,32.03c2.46-.59,4.1-2.55,3.66-4.39-.44-1.84-2.79-2.85-5.25-2.27-2.46,.59-4.1,2.55-3.66,4.39,.44,1.84,2.79,2.85,5.25,2.27Z"/></g></g></svg>